# Wavefront OBJ file automatically generated by Tiled2Unity

# Vertices (Count = 325)
v 0 -128 0
v -128 -128 0
v -128 0 0
v 0 0 0
v -256 -128 0
v -256 0 0
v -384 -128 0
v -384 0 0
v -512 -128 0
v -512 0 0
v -640 -128 0
v -640 0 0
v 0 -256 0
v -128 -256 0
v -256 -256 0
v -384 -256 0
v -512 -256 0
v -640 -256 0
v -768 -256 0
v -768 -128 0
v -896 -256 0
v -896 -128 0
v -1024 -256 0
v -1024 -128 0
v -1152 -256 0
v -1152 -128 0
v -1280 -256 0
v -1280 -128 0
v -1408 -256 0
v -1408 -128 0
v 0 -384 0
v -128 -384 0
v -256 -384 0
v -384 -384 0
v -512 -384 0
v -640 -384 0
v -768 -384 0
v -896 -384 0
v -1024 -384 0
v -1152 -384 0
v -1280 -384 0
v -1408 -384 0
v -1536 -384 0
v -1536 -256 0
v -1664 -384 0
v -1664 -256 0
v 0 -512 0
v -128 -512 0
v -256 -512 0
v 0 -640 0
v -128 -640 0
v 0 -768 0
v -128 -768 0
v 0 -896 0
v -128 -896 0
v 0 -1024 0
v -128 -1024 0
v -2816 -1024 0
v -2944 -1024 0
v -2944 -896 0
v -2816 -896 0
v 0 -1152 0
v -128 -1152 0
v -2688 -1152 0
v -2816 -1152 0
v -2688 -1024 0
v -2944 -1152 0
v 0 -1280 0
v -128 -1280 0
v -256 -1280 0
v -256 -1152 0
v -384 -1280 0
v -384 -1152 0
v -512 -1280 0
v -512 -1152 0
v -640 -1280 0
v -640 -1152 0
v -768 -1280 0
v -768 -1152 0
v -896 -1280 0
v -896 -1152 0
v -1024 -1280 0
v -1024 -1152 0
v -1152 -1280 0
v -1152 -1152 0
v -1280 -1280 0
v -1280 -1152 0
v -1408 -1280 0
v -1408 -1152 0
v -1536 -1280 0
v -1536 -1152 0
v -1664 -1280 0
v -1664 -1152 0
v -1792 -1280 0
v -1792 -1152 0
v -1920 -1280 0
v -1920 -1152 0
v -2048 -1280 0
v -2048 -1152 0
v -2176 -1280 0
v -2176 -1152 0
v -2304 -1280 0
v -2304 -1152 0
v -2432 -1280 0
v -2432 -1152 0
v -2560 -1280 0
v -2560 -1152 0
v -2688 -1280 0
v -2816 -1280 0
v -4096 -768 0
v -4224 -768 0
v -4224 -640 0
v -4096 -640 0
v -4352 -768 0
v -4352 -640 0
v -3584 -896 0
v -3712 -896 0
v -3712 -768 0
v -3584 -768 0
v -3840 -896 0
v -3840 -768 0
v -4096 -896 0
v -4224 -896 0
v -3072 -1024 0
v -3200 -1024 0
v -3200 -896 0
v -3072 -896 0
v -3328 -1024 0
v -3328 -896 0
v -3712 -1024 0
v -3840 -1024 0
v -4096 -1024 0
v -4224 -1024 0
v -3200 -1152 0
v -3328 -1152 0
v -3712 -1152 0
v -3840 -1152 0
v -4096 -1152 0
v -4224 -1152 0
v -2944 -1280 0
v -3072 -1280 0
v -3072 -1152 0
v -3200 -1280 0
v -3328 -1280 0
v -3456 -1280 0
v -3456 -1152 0
v -3584 -1280 0
v -3584 -1152 0
v -3712 -1280 0
v -3840 -1280 0
v -3968 -1280 0
v -3968 -1152 0
v -4096 -1280 0
v -4224 -1280 0
v -4352 -1280 0
v -4352 -1152 0
v -4480 -1280 0
v -4480 -1152 0
v -4608 -1280 0
v -4608 -1152 0
v -4736 -1280 0
v -4736 -1152 0
v -4864 -1280 0
v -4864 -1152 0
v -4992 -1280 0
v -4992 -1152 0
v -2048 -128 0
v -2176 -128 0
v -2176 0 0
v -2048 0 0
v -2304 -128 0
v -2304 0 0
v -2432 -128 0
v -2432 0 0
v -2560 -128 0
v -2560 0 0
v -2176 -256 0
v -2304 -256 0
v -2432 -256 0
v -2560 -256 0
v -2688 -256 0
v -2688 -128 0
v -2816 -256 0
v -2816 -128 0
v -2176 -384 0
v -2304 -384 0
v -2432 -384 0
v -2560 -384 0
v -2688 -384 0
v -2816 -384 0
v -2944 -384 0
v -2944 -256 0
v -2176 -512 0
v -2304 -512 0
v -2432 -512 0
v -2560 -512 0
v -2688 -512 0
v -2816 -512 0
v -2944 -512 0
v -2176 -640 0
v -2304 -640 0
v -2816 -640 0
v -2944 -640 0
v -1920 -768 0
v -2048 -768 0
v -2048 -640 0
v -1920 -640 0
v -2176 -768 0
v -2304 -768 0
v -384 -896 0
v -512 -896 0
v -512 -768 0
v -384 -768 0
v -640 -896 0
v -640 -768 0
v -768 -896 0
v -768 -768 0
v -896 -896 0
v -896 -768 0
v -1024 -896 0
v -1024 -768 0
v -1152 -896 0
v -1152 -768 0
v -1280 -896 0
v -1280 -768 0
v -1408 -896 0
v -1408 -768 0
v -1536 -896 0
v -1536 -768 0
v -1664 -896 0
v -1664 -768 0
v -1792 -896 0
v -1792 -768 0
v -1920 -896 0
v -2048 -896 0
v -4736 -128 0
v -4864 -128 0
v -4864 0 0
v -4736 0 0
v -4992 -128 0
v -4992 0 0
v -5120 -128 0
v -5120 0 0
v -5248 -128 0
v -5248 0 0
v -5376 -128 0
v -5376 0 0
v -5504 -128 0
v -5504 0 0
v -5632 -128 0
v -5632 0 0
v -5760 -128 0
v -5760 0 0
v -5888 -128 0
v -5888 0 0
v -6016 -128 0
v -6016 0 0
v -6144 -128 0
v -6144 0 0
v -6272 -128 0
v -6272 0 0
v -6400 -128 0
v -6400 0 0
v -4608 -256 0
v -4736 -256 0
v -4608 -128 0
v -4864 -256 0
v -5888 -256 0
v -6016 -256 0
v -6144 -256 0
v -6272 -256 0
v -6400 -256 0
v -4608 -384 0
v -4736 -384 0
v -6144 -384 0
v -6272 -384 0
v -6400 -384 0
v -6144 -512 0
v -6272 -512 0
v -6400 -512 0
v -6272 -640 0
v -6400 -640 0
v -4608 -768 0
v -4736 -768 0
v -4736 -640 0
v -4608 -640 0
v -6272 -768 0
v -6400 -768 0
v -4608 -896 0
v -4736 -896 0
v -6272 -896 0
v -6400 -896 0
v -4608 -1024 0
v -4736 -1024 0
v -4864 -1024 0
v -4864 -896 0
v -4992 -1024 0
v -4992 -896 0
v -6144 -1024 0
v -6272 -1024 0
v -6144 -896 0
v -6400 -1024 0
v -5120 -1152 0
v -5120 -1024 0
v -6144 -1152 0
v -6272 -1152 0
v -6400 -1152 0
v -5120 -1280 0
v -5248 -1280 0
v -5248 -1152 0
v -5376 -1280 0
v -5376 -1152 0
v -5504 -1280 0
v -5504 -1152 0
v -5632 -1280 0
v -5632 -1152 0
v -5760 -1280 0
v -5760 -1152 0
v -5888 -1280 0
v -5888 -1152 0
v -6016 -1280 0
v -6016 -1152 0
v -6144 -1280 0
v -6272 -1280 0
v -6400 -1280 0

# Texture Coorindates (Count = 4)
vt 0.0001220703 0.0001220703
vt 0.9998779 0.0001220703
vt 0.9998779 0.9998779
vt 0.0001220703 0.9998779

# Normal
vn 0 0 -1

# Groups (Count = 4)
g mesh_[00]_[00]
f  1/1/1  2/2/1  3/3/1  4/4/1 
f  2/1/1  5/2/1  6/3/1  3/4/1 
f  5/1/1  7/2/1  8/3/1  6/4/1 
f  7/1/1  9/2/1  10/3/1  8/4/1 
f  9/1/1  11/2/1  12/3/1  10/4/1 
f  13/1/1  14/2/1  2/3/1  1/4/1 
f  14/1/1  15/2/1  5/3/1  2/4/1 
f  15/1/1  16/2/1  7/3/1  5/4/1 
f  16/1/1  17/2/1  9/3/1  7/4/1 
f  17/1/1  18/2/1  11/3/1  9/4/1 
f  18/1/1  19/2/1  20/3/1  11/4/1 
f  19/1/1  21/2/1  22/3/1  20/4/1 
f  21/1/1  23/2/1  24/3/1  22/4/1 
f  23/1/1  25/2/1  26/3/1  24/4/1 
f  25/1/1  27/2/1  28/3/1  26/4/1 
f  27/1/1  29/2/1  30/3/1  28/4/1 
f  31/1/1  32/2/1  14/3/1  13/4/1 
f  32/1/1  33/2/1  15/3/1  14/4/1 
f  33/1/1  34/2/1  16/3/1  15/4/1 
f  34/1/1  35/2/1  17/3/1  16/4/1 
f  35/1/1  36/2/1  18/3/1  17/4/1 
f  36/1/1  37/2/1  19/3/1  18/4/1 
f  37/1/1  38/2/1  21/3/1  19/4/1 
f  38/1/1  39/2/1  23/3/1  21/4/1 
f  39/1/1  40/2/1  25/3/1  23/4/1 
f  40/1/1  41/2/1  27/3/1  25/4/1 
f  41/1/1  42/2/1  29/3/1  27/4/1 
f  42/1/1  43/2/1  44/3/1  29/4/1 
f  43/1/1  45/2/1  46/3/1  44/4/1 
f  47/1/1  48/2/1  32/3/1  31/4/1 
f  48/1/1  49/2/1  33/3/1  32/4/1 
f  50/1/1  51/2/1  48/3/1  47/4/1 
f  52/1/1  53/2/1  51/3/1  50/4/1 
f  54/1/1  55/2/1  53/3/1  52/4/1 
f  56/1/1  57/2/1  55/3/1  54/4/1 
f  58/1/1  59/2/1  60/3/1  61/4/1 
f  62/1/1  63/2/1  57/3/1  56/4/1 
f  64/1/1  65/2/1  58/3/1  66/4/1 
f  65/1/1  67/2/1  59/3/1  58/4/1 
f  68/1/1  69/2/1  63/3/1  62/4/1 
f  69/1/1  70/2/1  71/3/1  63/4/1 
f  70/1/1  72/2/1  73/3/1  71/4/1 
f  72/1/1  74/2/1  75/3/1  73/4/1 
f  74/1/1  76/2/1  77/3/1  75/4/1 
f  76/1/1  78/2/1  79/3/1  77/4/1 
f  78/1/1  80/2/1  81/3/1  79/4/1 
f  80/1/1  82/2/1  83/3/1  81/4/1 
f  82/1/1  84/2/1  85/3/1  83/4/1 
f  84/1/1  86/2/1  87/3/1  85/4/1 
f  86/1/1  88/2/1  89/3/1  87/4/1 
f  88/1/1  90/2/1  91/3/1  89/4/1 
f  90/1/1  92/2/1  93/3/1  91/4/1 
f  92/1/1  94/2/1  95/3/1  93/4/1 
f  94/1/1  96/2/1  97/3/1  95/4/1 
f  96/1/1  98/2/1  99/3/1  97/4/1 
f  98/1/1  100/2/1  101/3/1  99/4/1 
f  100/1/1  102/2/1  103/3/1  101/4/1 
f  102/1/1  104/2/1  105/3/1  103/4/1 
f  104/1/1  106/2/1  107/3/1  105/4/1 
f  106/1/1  108/2/1  64/3/1  107/4/1 
f  108/1/1  109/2/1  65/3/1  64/4/1 
g mesh_[01]_[00]
f  110/1/1  111/2/1  112/3/1  113/4/1 
f  111/1/1  114/2/1  115/3/1  112/4/1 
f  116/1/1  117/2/1  118/3/1  119/4/1 
f  117/1/1  120/2/1  121/3/1  118/4/1 
f  122/1/1  123/2/1  111/3/1  110/4/1 
f  124/1/1  125/2/1  126/3/1  127/4/1 
f  125/1/1  128/2/1  129/3/1  126/4/1 
f  130/1/1  131/2/1  120/3/1  117/4/1 
f  132/1/1  133/2/1  123/3/1  122/4/1 
f  134/1/1  135/2/1  128/3/1  125/4/1 
f  136/1/1  137/2/1  131/3/1  130/4/1 
f  138/1/1  139/2/1  133/3/1  132/4/1 
f  109/1/1  140/2/1  67/3/1  65/4/1 
f  140/1/1  141/2/1  142/3/1  67/4/1 
f  141/1/1  143/2/1  134/3/1  142/4/1 
f  143/1/1  144/2/1  135/3/1  134/4/1 
f  144/1/1  145/2/1  146/3/1  135/4/1 
f  145/1/1  147/2/1  148/3/1  146/4/1 
f  147/1/1  149/2/1  136/3/1  148/4/1 
f  149/1/1  150/2/1  137/3/1  136/4/1 
f  150/1/1  151/2/1  152/3/1  137/4/1 
f  151/1/1  153/2/1  138/3/1  152/4/1 
f  153/1/1  154/2/1  139/3/1  138/4/1 
f  154/1/1  155/2/1  156/3/1  139/4/1 
f  155/1/1  157/2/1  158/3/1  156/4/1 
f  157/1/1  159/2/1  160/3/1  158/4/1 
f  159/1/1  161/2/1  162/3/1  160/4/1 
f  161/1/1  163/2/1  164/3/1  162/4/1 
f  163/1/1  165/2/1  166/3/1  164/4/1 
g mesh_[02]_[00]
f  167/1/1  168/2/1  169/3/1  170/4/1 
f  168/1/1  171/2/1  172/3/1  169/4/1 
f  171/1/1  173/2/1  174/3/1  172/4/1 
f  173/1/1  175/2/1  176/3/1  174/4/1 
f  177/1/1  178/2/1  171/3/1  168/4/1 
f  178/1/1  179/2/1  173/3/1  171/4/1 
f  179/1/1  180/2/1  175/3/1  173/4/1 
f  180/1/1  181/2/1  182/3/1  175/4/1 
f  181/1/1  183/2/1  184/3/1  182/4/1 
f  185/1/1  186/2/1  178/3/1  177/4/1 
f  186/1/1  187/2/1  179/3/1  178/4/1 
f  187/1/1  188/2/1  180/3/1  179/4/1 
f  188/1/1  189/2/1  181/3/1  180/4/1 
f  189/1/1  190/2/1  183/3/1  181/4/1 
f  190/1/1  191/2/1  192/3/1  183/4/1 
f  193/1/1  194/2/1  186/3/1  185/4/1 
f  194/1/1  195/2/1  187/3/1  186/4/1 
f  195/1/1  196/2/1  188/3/1  187/4/1 
f  196/1/1  197/2/1  189/3/1  188/4/1 
f  197/1/1  198/2/1  190/3/1  189/4/1 
f  198/1/1  199/2/1  191/3/1  190/4/1 
f  200/1/1  201/2/1  194/3/1  193/4/1 
f  202/1/1  203/2/1  199/3/1  198/4/1 
f  204/1/1  205/2/1  206/3/1  207/4/1 
f  205/1/1  208/2/1  200/3/1  206/4/1 
f  208/1/1  209/2/1  201/3/1  200/4/1 
f  210/1/1  211/2/1  212/3/1  213/4/1 
f  211/1/1  214/2/1  215/3/1  212/4/1 
f  214/1/1  216/2/1  217/3/1  215/4/1 
f  216/1/1  218/2/1  219/3/1  217/4/1 
f  218/1/1  220/2/1  221/3/1  219/4/1 
f  220/1/1  222/2/1  223/3/1  221/4/1 
f  222/1/1  224/2/1  225/3/1  223/4/1 
f  224/1/1  226/2/1  227/3/1  225/4/1 
f  226/1/1  228/2/1  229/3/1  227/4/1 
f  228/1/1  230/2/1  231/3/1  229/4/1 
f  230/1/1  232/2/1  233/3/1  231/4/1 
f  232/1/1  234/2/1  204/3/1  233/4/1 
f  234/1/1  235/2/1  205/3/1  204/4/1 
g mesh_[03]_[00]
f  236/1/1  237/2/1  238/3/1  239/4/1 
f  237/1/1  240/2/1  241/3/1  238/4/1 
f  240/1/1  242/2/1  243/3/1  241/4/1 
f  242/1/1  244/2/1  245/3/1  243/4/1 
f  244/1/1  246/2/1  247/3/1  245/4/1 
f  246/1/1  248/2/1  249/3/1  247/4/1 
f  248/1/1  250/2/1  251/3/1  249/4/1 
f  250/1/1  252/2/1  253/3/1  251/4/1 
f  252/1/1  254/2/1  255/3/1  253/4/1 
f  254/1/1  256/2/1  257/3/1  255/4/1 
f  256/1/1  258/2/1  259/3/1  257/4/1 
f  258/1/1  260/2/1  261/3/1  259/4/1 
f  260/1/1  262/2/1  263/3/1  261/4/1 
f  264/1/1  265/2/1  236/3/1  266/4/1 
f  265/1/1  267/2/1  237/3/1  236/4/1 
f  268/1/1  269/2/1  256/3/1  254/4/1 
f  269/1/1  270/2/1  258/3/1  256/4/1 
f  270/1/1  271/2/1  260/3/1  258/4/1 
f  271/1/1  272/2/1  262/3/1  260/4/1 
f  273/1/1  274/2/1  265/3/1  264/4/1 
f  275/1/1  276/2/1  271/3/1  270/4/1 
f  276/1/1  277/2/1  272/3/1  271/4/1 
f  278/1/1  279/2/1  276/3/1  275/4/1 
f  279/1/1  280/2/1  277/3/1  276/4/1 
f  281/1/1  282/2/1  280/3/1  279/4/1 
f  283/1/1  284/2/1  285/3/1  286/4/1 
f  287/1/1  288/2/1  282/3/1  281/4/1 
f  289/1/1  290/2/1  284/3/1  283/4/1 
f  291/1/1  292/2/1  288/3/1  287/4/1 
f  293/1/1  294/2/1  290/3/1  289/4/1 
f  294/1/1  295/2/1  296/3/1  290/4/1 
f  295/1/1  297/2/1  298/3/1  296/4/1 
f  299/1/1  300/2/1  291/3/1  301/4/1 
f  300/1/1  302/2/1  292/3/1  291/4/1 
f  164/1/1  166/2/1  297/3/1  295/4/1 
f  166/1/1  303/2/1  304/3/1  297/4/1 
f  305/1/1  306/2/1  300/3/1  299/4/1 
f  306/1/1  307/2/1  302/3/1  300/4/1 
f  165/1/1  308/2/1  303/3/1  166/4/1 
f  308/1/1  309/2/1  310/3/1  303/4/1 
f  309/1/1  311/2/1  312/3/1  310/4/1 
f  311/1/1  313/2/1  314/3/1  312/4/1 
f  313/1/1  315/2/1  316/3/1  314/4/1 
f  315/1/1  317/2/1  318/3/1  316/4/1 
f  317/1/1  319/2/1  320/3/1  318/4/1 
f  319/1/1  321/2/1  322/3/1  320/4/1 
f  321/1/1  323/2/1  305/3/1  322/4/1 
f  323/1/1  324/2/1  306/3/1  305/4/1 
f  324/1/1  325/2/1  307/3/1  306/4/1 
