# Wavefront OBJ file automatically generated by Tiled2Unity

# Vertices (Count = 128)
v 0 -128 0
v -128 -128 0
v -128 0 0
v 0 0 0
v -2432 -128 0
v -2560 -128 0
v -2560 0 0
v -2432 0 0
v 0 -256 0
v -128 -256 0
v -2432 -256 0
v -2560 -256 0
v 0 -384 0
v -128 -384 0
v -2432 -384 0
v -2560 -384 0
v 0 -512 0
v -128 -512 0
v -2432 -512 0
v -2560 -512 0
v 0 -640 0
v -128 -640 0
v -2432 -640 0
v -2560 -640 0
v 0 -768 0
v -128 -768 0
v -2432 -768 0
v -2560 -768 0
v 0 -896 0
v -128 -896 0
v -2432 -896 0
v -2560 -896 0
v 0 -1024 0
v -128 -1024 0
v -256 -1024 0
v -256 -896 0
v -384 -1024 0
v -384 -896 0
v -512 -1024 0
v -512 -896 0
v -640 -1024 0
v -640 -896 0
v -768 -1024 0
v -768 -896 0
v -896 -1024 0
v -896 -896 0
v -1024 -1024 0
v -1024 -896 0
v -1152 -1024 0
v -1152 -896 0
v -1280 -1024 0
v -1280 -896 0
v -1408 -1024 0
v -1408 -896 0
v -1536 -1024 0
v -1536 -896 0
v -1664 -1024 0
v -1664 -896 0
v -1792 -1024 0
v -1792 -896 0
v -1920 -1024 0
v -1920 -896 0
v -2048 -1024 0
v -2048 -896 0
v -2176 -1024 0
v -2176 -896 0
v -2304 -1024 0
v -2304 -896 0
v -2432 -1024 0
v -2560 -1024 0
v 0 -1152 0
v -128 -1152 0
v -256 -1152 0
v -384 -1152 0
v -512 -1152 0
v -640 -1152 0
v -768 -1152 0
v -896 -1152 0
v -1664 -1152 0
v -1792 -1152 0
v -1920 -1152 0
v -2048 -1152 0
v -2176 -1152 0
v -2304 -1152 0
v -2432 -1152 0
v -2560 -1152 0
v 0 -1280 0
v -128 -1280 0
v -256 -1280 0
v -384 -1280 0
v -512 -1280 0
v -2048 -1280 0
v -2176 -1280 0
v -2304 -1280 0
v -2432 -1280 0
v -2560 -1280 0
v -1152 -128 0
v -1280 -128 0
v -1280 0 0
v -1152 0 0
v -1408 -128 0
v -1408 0 0
v -1152 -256 0
v -1280 -256 0
v -1408 -256 0
v -1024 -384 0
v -1152 -384 0
v -1024 -256 0
v -1280 -384 0
v -1408 -384 0
v -1024 -512 0
v -1152 -512 0
v -1280 -512 0
v -1408 -512 0
v -896 -640 0
v -1024 -640 0
v -896 -512 0
v -1152 -640 0
v -1280 -640 0
v -1408 -640 0
v -896 -768 0
v -1024 -768 0
v -1152 -768 0
v -1280 -768 0
v -1408 -768 0
v -1536 -768 0
v -1536 -640 0
v -768 -768 0

# Texture Coorindates (Count = 4)
vt 0.0001220703 0.0001220703
vt 0.9998779 0.0001220703
vt 0.9998779 0.9998779
vt 0.0001220703 0.9998779

# Normal
vn 0 0 -1

# Groups (Count = 2)
g mesh_[00]_[00]
f  1/1/1  2/2/1  3/3/1  4/4/1 
f  5/1/1  6/2/1  7/3/1  8/4/1 
f  9/1/1  10/2/1  2/3/1  1/4/1 
f  11/1/1  12/2/1  6/3/1  5/4/1 
f  13/1/1  14/2/1  10/3/1  9/4/1 
f  15/1/1  16/2/1  12/3/1  11/4/1 
f  17/1/1  18/2/1  14/3/1  13/4/1 
f  19/1/1  20/2/1  16/3/1  15/4/1 
f  21/1/1  22/2/1  18/3/1  17/4/1 
f  23/1/1  24/2/1  20/3/1  19/4/1 
f  25/1/1  26/2/1  22/3/1  21/4/1 
f  27/1/1  28/2/1  24/3/1  23/4/1 
f  29/1/1  30/2/1  26/3/1  25/4/1 
f  31/1/1  32/2/1  28/3/1  27/4/1 
f  33/1/1  34/2/1  30/3/1  29/4/1 
f  34/1/1  35/2/1  36/3/1  30/4/1 
f  35/1/1  37/2/1  38/3/1  36/4/1 
f  37/1/1  39/2/1  40/3/1  38/4/1 
f  39/1/1  41/2/1  42/3/1  40/4/1 
f  41/1/1  43/2/1  44/3/1  42/4/1 
f  43/1/1  45/2/1  46/3/1  44/4/1 
f  45/1/1  47/2/1  48/3/1  46/4/1 
f  47/1/1  49/2/1  50/3/1  48/4/1 
f  49/1/1  51/2/1  52/3/1  50/4/1 
f  51/1/1  53/2/1  54/3/1  52/4/1 
f  53/1/1  55/2/1  56/3/1  54/4/1 
f  55/1/1  57/2/1  58/3/1  56/4/1 
f  57/1/1  59/2/1  60/3/1  58/4/1 
f  59/1/1  61/2/1  62/3/1  60/4/1 
f  61/1/1  63/2/1  64/3/1  62/4/1 
f  63/1/1  65/2/1  66/3/1  64/4/1 
f  65/1/1  67/2/1  68/3/1  66/4/1 
f  67/1/1  69/2/1  31/3/1  68/4/1 
f  69/1/1  70/2/1  32/3/1  31/4/1 
f  71/1/1  72/2/1  34/3/1  33/4/1 
f  72/1/1  73/2/1  35/3/1  34/4/1 
f  73/1/1  74/2/1  37/3/1  35/4/1 
f  74/1/1  75/2/1  39/3/1  37/4/1 
f  75/1/1  76/2/1  41/3/1  39/4/1 
f  76/1/1  77/2/1  43/3/1  41/4/1 
f  77/1/1  78/2/1  45/3/1  43/4/1 
f  79/1/1  80/2/1  59/3/1  57/4/1 
f  80/1/1  81/2/1  61/3/1  59/4/1 
f  81/1/1  82/2/1  63/3/1  61/4/1 
f  82/1/1  83/2/1  65/3/1  63/4/1 
f  83/1/1  84/2/1  67/3/1  65/4/1 
f  84/1/1  85/2/1  69/3/1  67/4/1 
f  85/1/1  86/2/1  70/3/1  69/4/1 
f  87/1/1  88/2/1  72/3/1  71/4/1 
f  88/1/1  89/2/1  73/3/1  72/4/1 
f  89/1/1  90/2/1  74/3/1  73/4/1 
f  90/1/1  91/2/1  75/3/1  74/4/1 
f  92/1/1  93/2/1  83/3/1  82/4/1 
f  93/1/1  94/2/1  84/3/1  83/4/1 
f  94/1/1  95/2/1  85/3/1  84/4/1 
f  95/1/1  96/2/1  86/3/1  85/4/1 
g mesh_[01]_[00]
f  97/1/1  98/2/1  99/3/1  100/4/1 
f  98/1/1  101/2/1  102/3/1  99/4/1 
f  103/1/1  104/2/1  98/3/1  97/4/1 
f  104/1/1  105/2/1  101/3/1  98/4/1 
f  106/1/1  107/2/1  103/3/1  108/4/1 
f  107/1/1  109/2/1  104/3/1  103/4/1 
f  109/1/1  110/2/1  105/3/1  104/4/1 
f  111/1/1  112/2/1  107/3/1  106/4/1 
f  112/1/1  113/2/1  109/3/1  107/4/1 
f  113/1/1  114/2/1  110/3/1  109/4/1 
f  115/1/1  116/2/1  111/3/1  117/4/1 
f  116/1/1  118/2/1  112/3/1  111/4/1 
f  118/1/1  119/2/1  113/3/1  112/4/1 
f  119/1/1  120/2/1  114/3/1  113/4/1 
f  121/1/1  122/2/1  116/3/1  115/4/1 
f  122/1/1  123/2/1  118/3/1  116/4/1 
f  123/1/1  124/2/1  119/3/1  118/4/1 
f  124/1/1  125/2/1  120/3/1  119/4/1 
f  125/1/1  126/2/1  127/3/1  120/4/1 
f  44/1/1  46/2/1  121/3/1  128/4/1 
f  46/1/1  48/2/1  122/3/1  121/4/1 
f  48/1/1  50/2/1  123/3/1  122/4/1 
f  50/1/1  52/2/1  124/3/1  123/4/1 
f  52/1/1  54/2/1  125/3/1  124/4/1 
f  54/1/1  56/2/1  126/3/1  125/4/1 
f  45/1/1  47/2/1  48/3/1  46/4/1 
f  47/1/1  49/2/1  50/3/1  48/4/1 
f  51/1/1  53/2/1  54/3/1  52/4/1 
f  53/1/1  55/2/1  56/3/1  54/4/1 
