# Wavefront OBJ file automatically generated by Tiled2Unity

# Vertices (Count = 112)
v 0 -128 0
v -128 -128 0
v -128 0 0
v 0 0 0
v -256 -128 0
v -256 0 0
v -384 -128 0
v -384 0 0
v -512 -128 0
v -512 0 0
v -640 -128 0
v -640 0 0
v -768 -128 0
v -768 0 0
v -896 -128 0
v -896 0 0
v -1024 -128 0
v -1024 0 0
v -1152 -128 0
v -1152 0 0
v -1280 -128 0
v -1280 0 0
v -1408 -128 0
v -1408 0 0
v -1536 -128 0
v -1536 0 0
v -1664 -128 0
v -1664 0 0
v -1792 -128 0
v -1792 0 0
v -1920 -128 0
v -1920 0 0
v -2048 -128 0
v -2048 0 0
v -2176 -128 0
v -2176 0 0
v -2304 -128 0
v -2304 0 0
v -2432 -128 0
v -2432 0 0
v -2560 -128 0
v -2560 0 0
v 0 -256 0
v -128 -256 0
v -2432 -256 0
v -2560 -256 0
v 0 -384 0
v -128 -384 0
v -2432 -384 0
v -2560 -384 0
v 0 -512 0
v -128 -512 0
v -2432 -512 0
v -2560 -512 0
v 0 -640 0
v -128 -640 0
v -2432 -640 0
v -2560 -640 0
v 0 -768 0
v -128 -768 0
v -2432 -768 0
v -2560 -768 0
v 0 -896 0
v -128 -896 0
v -2432 -896 0
v -2560 -896 0
v 0 -1024 0
v -128 -1024 0
v -2432 -1024 0
v -2560 -1024 0
v 0 -1152 0
v -128 -1152 0
v -2432 -1152 0
v -2560 -1152 0
v 0 -1280 0
v -128 -1280 0
v -256 -1280 0
v -256 -1152 0
v -384 -1280 0
v -384 -1152 0
v -512 -1280 0
v -512 -1152 0
v -640 -1280 0
v -640 -1152 0
v -768 -1280 0
v -768 -1152 0
v -896 -1280 0
v -896 -1152 0
v -1024 -1280 0
v -1024 -1152 0
v -1152 -1280 0
v -1152 -1152 0
v -1280 -1280 0
v -1280 -1152 0
v -1408 -1280 0
v -1408 -1152 0
v -1536 -1280 0
v -1536 -1152 0
v -1664 -1280 0
v -1664 -1152 0
v -1792 -1280 0
v -1792 -1152 0
v -1920 -1280 0
v -1920 -1152 0
v -2048 -1280 0
v -2048 -1152 0
v -2176 -1280 0
v -2176 -1152 0
v -2304 -1280 0
v -2304 -1152 0
v -2432 -1280 0
v -2560 -1280 0

# Texture Coorindates (Count = 4)
vt 0.0001220703 0.0001220703
vt 0.9998779 0.0001220703
vt 0.9998779 0.9998779
vt 0.0001220703 0.9998779

# Normal
vn 0 0 -1

# Groups (Count = 1)
g mesh_[00]_[00]
f  1/1/1  2/2/1  3/3/1  4/4/1 
f  2/1/1  5/2/1  6/3/1  3/4/1 
f  5/1/1  7/2/1  8/3/1  6/4/1 
f  7/1/1  9/2/1  10/3/1  8/4/1 
f  9/1/1  11/2/1  12/3/1  10/4/1 
f  11/1/1  13/2/1  14/3/1  12/4/1 
f  13/1/1  15/2/1  16/3/1  14/4/1 
f  15/1/1  17/2/1  18/3/1  16/4/1 
f  17/1/1  19/2/1  20/3/1  18/4/1 
f  19/1/1  21/2/1  22/3/1  20/4/1 
f  21/1/1  23/2/1  24/3/1  22/4/1 
f  23/1/1  25/2/1  26/3/1  24/4/1 
f  25/1/1  27/2/1  28/3/1  26/4/1 
f  27/1/1  29/2/1  30/3/1  28/4/1 
f  29/1/1  31/2/1  32/3/1  30/4/1 
f  31/1/1  33/2/1  34/3/1  32/4/1 
f  33/1/1  35/2/1  36/3/1  34/4/1 
f  35/1/1  37/2/1  38/3/1  36/4/1 
f  37/1/1  39/2/1  40/3/1  38/4/1 
f  39/1/1  41/2/1  42/3/1  40/4/1 
f  43/1/1  44/2/1  2/3/1  1/4/1 
f  45/1/1  46/2/1  41/3/1  39/4/1 
f  47/1/1  48/2/1  44/3/1  43/4/1 
f  49/1/1  50/2/1  46/3/1  45/4/1 
f  51/1/1  52/2/1  48/3/1  47/4/1 
f  53/1/1  54/2/1  50/3/1  49/4/1 
f  55/1/1  56/2/1  52/3/1  51/4/1 
f  57/1/1  58/2/1  54/3/1  53/4/1 
f  59/1/1  60/2/1  56/3/1  55/4/1 
f  61/1/1  62/2/1  58/3/1  57/4/1 
f  63/1/1  64/2/1  60/3/1  59/4/1 
f  65/1/1  66/2/1  62/3/1  61/4/1 
f  67/1/1  68/2/1  64/3/1  63/4/1 
f  69/1/1  70/2/1  66/3/1  65/4/1 
f  71/1/1  72/2/1  68/3/1  67/4/1 
f  73/1/1  74/2/1  70/3/1  69/4/1 
f  75/1/1  76/2/1  72/3/1  71/4/1 
f  76/1/1  77/2/1  78/3/1  72/4/1 
f  77/1/1  79/2/1  80/3/1  78/4/1 
f  79/1/1  81/2/1  82/3/1  80/4/1 
f  81/1/1  83/2/1  84/3/1  82/4/1 
f  83/1/1  85/2/1  86/3/1  84/4/1 
f  85/1/1  87/2/1  88/3/1  86/4/1 
f  87/1/1  89/2/1  90/3/1  88/4/1 
f  89/1/1  91/2/1  92/3/1  90/4/1 
f  91/1/1  93/2/1  94/3/1  92/4/1 
f  93/1/1  95/2/1  96/3/1  94/4/1 
f  95/1/1  97/2/1  98/3/1  96/4/1 
f  97/1/1  99/2/1  100/3/1  98/4/1 
f  99/1/1  101/2/1  102/3/1  100/4/1 
f  101/1/1  103/2/1  104/3/1  102/4/1 
f  103/1/1  105/2/1  106/3/1  104/4/1 
f  105/1/1  107/2/1  108/3/1  106/4/1 
f  107/1/1  109/2/1  110/3/1  108/4/1 
f  109/1/1  111/2/1  73/3/1  110/4/1 
f  111/1/1  112/2/1  74/3/1  73/4/1 
